<svg width="206" height="2" fill="none" xmlns="http://www.w3.org/2000/svg"><path d="M1 1l4.032.01m86.276.211l4.032.01m-55.636-.136l4.031.01m86.277.211l4.031.01M20.352 1.047l4.031.01m86.277.212l4.032.01m-55.637-.137l4.032.01m86.277.212l4.031.01M7.451 1.016l4.031.01m86.277.211l4.032.01m-55.637-.136l4.032.01m86.276.211l4.032.01M26.802 1.063l4.032.01m86.277.212l4.031.01m-55.636-.137l4.031.01m86.277.211l4.032.01M13.901 1.032l4.032.01m86.276.211l4.032.01m-55.636-.137l4.031.01m86.277.212l4.032.01M33.253 1.079l4.032.01m86.276.211l4.032.01m-55.636-.136l4.031.01m86.277.211l4.031.01M78.407 1.19l4.032.01m86.276.211l4.032.01m-87.89-.215l4.032.01m86.277.21l4.032.01m2.419.007l4.031.01m2.419.005l4.032.01m2.419.006l4.031.01m2.419.006L205 1.5" stroke="#000"/></svg>